<svg width="400" height="308" viewBox="0 0 400 308" fill="none" xmlns="http://www.w3.org/2000/svg">
<g clip-path="url(#clip0_891_8606)">
<path d="M126.35 74.6642L121.972 76.3162L120.85 80.8595L117.926 77.204L113.258 77.5414L115.83 73.6322L114.067 69.2968L118.581 70.5338L122.158 67.519L122.376 72.1932L126.35 74.6642Z" fill="#F9FAFB"/>
<path d="M270.21 76.246L265.472 70.943L258.417 71.8404L261.994 65.6947L258.96 59.2634L265.911 60.7667L271.091 55.8936L271.808 62.9692L278.044 66.3901L271.536 69.2591L270.21 76.246Z" fill="#F9FAFB"/>
<path d="M144.097 141.234L138.262 143.434L136.767 149.489L132.871 144.62L126.651 145.068L130.078 139.858L127.728 134.082L133.743 135.731L138.511 131.712L138.801 137.941L144.097 141.234Z" fill="#F9FAFB"/>
<path d="M182.526 53.8336L178.906 52.8962L176.082 55.3465L175.854 51.6141L172.65 49.6861L176.13 48.3167L176.974 44.6724L179.352 47.5591L183.077 47.2373L181.067 50.3904L182.526 53.8336Z" fill="#F9FAFB"/>
<path d="M329.265 4.03255L326.426 4.72206L325.386 7.44904L323.854 4.96251L320.938 4.81454L322.828 2.59138L322.068 -0.228812L324.769 0.883138L327.214 -0.711914L326.992 2.19928L329.265 4.03255Z" fill="#F9FAFB"/>
<path d="M241.142 16.7083L238.602 15.04L235.788 16.1875L236.589 13.2555L234.631 10.9333L237.665 10.7897L239.269 8.2085L240.343 11.0509L243.294 11.7781L240.92 13.678L241.142 16.7083Z" fill="#F9FAFB"/>
<path d="M62.0428 19.6307L58.7151 17.8122L55.3304 19.5227L56.0317 15.7955L53.3595 13.104L57.1207 12.6209L58.8541 9.24805L60.4773 12.6742L64.2208 13.2801L61.4627 15.8842L62.0428 19.6307Z" fill="#F9FAFB"/>
<path d="M291.596 144.876L286.858 139.573L279.803 140.471L283.381 134.325L280.348 127.893L287.3 129.397L292.479 124.524L293.195 131.6L299.43 135.02L292.922 137.889L291.596 144.876Z" fill="#F9FAFB"/>
<path d="M368.029 42.3617L362.115 41.4776L358.036 45.8462L357.049 39.9506L351.634 37.4226L356.936 34.6609L357.668 28.729L361.932 32.9186L367.799 31.7822L365.132 37.1304L368.029 42.3617Z" fill="#F9FAFB"/>
<path d="M145.927 251.868L142.154 253.292L141.187 257.207L138.667 254.058L134.646 254.348L136.862 250.979L135.343 247.243L139.232 248.31L142.315 245.711L142.503 249.739L145.927 251.868Z" fill="#F9FAFB"/>
<path d="M211.222 181.407L207.602 180.47L204.778 182.921L204.551 179.188L201.346 177.26L204.826 175.89L205.671 172.247L208.047 175.133L211.775 174.809L209.763 177.963L211.222 181.407Z" fill="#F9FAFB"/>
<path d="M329.265 109.884L326.426 110.574L325.386 113.301L323.854 110.814L320.938 110.668L322.828 108.443L322.068 105.623L324.769 106.735L327.214 105.14L326.992 108.051L329.265 109.884Z" fill="#F9FAFB"/>
<path d="M215.615 119.023L211.468 116.297L206.871 118.17L208.18 113.383L204.979 109.59L209.937 109.356L212.555 105.14L214.31 109.782L219.129 110.969L215.256 114.074L215.615 119.023Z" fill="#F9FAFB"/>
<path d="M71.181 125.484L64.351 121.751L57.4041 125.261L58.8438 117.612L53.3595 112.089L61.0788 111.095L64.6366 104.172L67.9672 111.207L75.6503 112.451L69.9899 117.794L71.181 125.484Z" fill="#F9FAFB"/>
<path d="M60.7703 230.377L56.031 225.074L48.9761 225.972L52.5546 219.826L49.5213 213.394L56.4719 214.898L61.6522 210.025L62.369 217.101L68.6042 220.521L62.0968 223.39L60.7703 230.377Z" fill="#F9FAFB"/>
<path d="M368.029 148.213L362.115 147.33L358.036 151.699L357.049 145.804L351.634 143.274L356.936 140.514L357.668 134.582L361.932 138.771L367.799 137.635L365.132 142.984L368.029 148.213Z" fill="#F9FAFB"/>
<path d="M85.1022 268.568L81.9402 269.76L81.1309 273.04L79.0201 270.402L75.6503 270.645L77.5065 267.823L76.234 264.693L79.4922 265.587L82.0756 263.41L82.2324 266.784L85.1022 268.568Z" fill="#F9FAFB"/>
<path d="M161.14 211.785L157.519 210.848L154.695 213.299L154.467 209.567L151.263 207.638L154.742 206.269L155.586 202.625L157.965 205.511L161.691 205.188L159.681 208.342L161.14 211.785Z" fill="#F9FAFB"/>
<path d="M305.114 190.516L300.381 191.665L298.644 196.215L296.089 192.068L291.224 191.821L294.379 188.111L293.11 183.408L297.613 185.261L301.693 182.601L301.324 187.457L305.114 190.516Z" fill="#F9FAFB"/>
<path d="M214.46 285.342L209.345 281.982L203.678 284.291L205.293 278.388L201.346 273.711L207.458 273.423L210.687 268.224L212.851 273.949L218.791 275.413L214.015 279.239L214.46 285.342Z" fill="#F9FAFB"/>
<path d="M40.656 177.584L37.3283 175.765L33.9437 177.475L34.645 173.748L31.9728 171.057L35.734 170.573L37.4674 167.2L39.0898 170.627L42.8341 171.233L40.0753 173.836L40.656 177.584Z" fill="#F9FAFB"/>
<path d="M260.396 240.553L255.657 235.25L248.602 236.147L252.18 230.002L249.146 223.57L256.097 225.074L261.276 220.201L261.994 227.277L268.229 230.697L261.722 233.565L260.396 240.553Z" fill="#F9FAFB"/>
<path d="M346.641 200.313L340.729 199.43L336.65 203.799L335.663 197.903L330.246 195.374L335.549 192.614L336.282 186.681L340.545 190.871L346.413 189.734L343.746 195.083L346.641 200.313Z" fill="#F9FAFB"/>
<path d="M335.81 263.884L331.432 265.536L330.309 270.08L327.387 266.426L322.718 266.762L325.29 262.852L323.526 258.517L328.04 259.755L331.619 256.739L331.835 261.413L335.81 263.884Z" fill="#F9FAFB"/>
</g>
<defs>
<clipPath id="clip0_891_8606">
<rect width="400" height="308" fill="white"/>
</clipPath>
</defs>
</svg>
