<svg width="24" height="24" viewBox="0 0 24 24" fill="none" xmlns="http://www.w3.org/2000/svg">
<path d="M17.2502 10.4992C17.2502 8.70912 16.5384 6.99258 15.2727 5.72675C14.0068 4.46082 12.2896 3.74921 10.4993 3.74921C8.70908 3.74928 6.99266 4.46089 5.72681 5.72675C4.46095 6.9926 3.74934 8.70902 3.74927 10.4992C3.74927 12.2895 4.46088 14.0067 5.72681 15.2726C6.99264 16.5384 8.70918 17.2501 10.4993 17.2502C12.2896 17.2502 14.0068 16.5386 15.2727 15.2726C16.5386 14.0067 17.2502 12.2895 17.2502 10.4992ZM18.7502 10.4992C18.7502 12.4359 18.0674 14.3014 16.8381 15.7775L21.5305 20.4699C21.8232 20.7628 21.8233 21.2376 21.5305 21.5305C21.2377 21.8233 20.7629 21.8232 20.47 21.5305L15.7776 16.8381C14.3014 18.0673 12.4359 18.7502 10.4993 18.7502C8.31126 18.7501 6.21244 17.8804 4.66528 16.3332C3.11823 14.786 2.24927 12.6872 2.24927 10.4992C2.24934 8.3112 3.11812 6.21238 4.66528 4.66522C6.21244 3.11806 8.31126 2.24928 10.4993 2.24921C12.6872 2.24921 14.7861 3.11817 16.3333 4.66522C17.8804 6.21238 18.7502 8.3112 18.7502 10.4992Z" fill="#F9FAFB"/>
</svg>
