<svg width="24" height="24" viewBox="0 0 24 24" fill="none" xmlns="http://www.w3.org/2000/svg">
<path fill-rule="evenodd" clip-rule="evenodd" d="M19.5 21C20.2956 21 21.0587 20.6839 21.6213 20.1213C22.1839 19.5587 22.5 18.7956 22.5 18V9C22.5 8.20435 22.1839 7.44129 21.6213 6.87868C21.0587 6.31607 20.2956 6 19.5 6H14.121C13.9222 5.99983 13.7315 5.92069 13.591 5.78L11.47 3.66C11.2611 3.45089 11.0131 3.28497 10.7402 3.17173C10.4672 3.05848 10.1745 3.00013 9.879 3H4.5C3.70435 3 2.94129 3.31607 2.37868 3.87868C1.81607 4.44129 1.5 5.20435 1.5 6V18C1.5 18.7956 1.81607 19.5587 2.37868 20.1213C2.94129 20.6839 3.70435 21 4.5 21H19.5ZM12.75 10.5C12.75 10.3011 12.671 10.1103 12.5303 9.96967C12.3897 9.82902 12.1989 9.75 12 9.75C11.8011 9.75 11.6103 9.82902 11.4697 9.96967C11.329 10.1103 11.25 10.3011 11.25 10.5V14.69L9.53 12.97C9.38783 12.8375 9.19978 12.7654 9.00548 12.7688C8.81118 12.7723 8.62579 12.851 8.48838 12.9884C8.35097 13.1258 8.27225 13.3112 8.26882 13.5055C8.2654 13.6998 8.33752 13.8878 8.47 14.03L11.47 17.03C11.6106 17.1705 11.8012 17.2493 12 17.2493C12.1988 17.2493 12.3894 17.1705 12.53 17.03L15.53 14.03C15.6037 13.9613 15.6628 13.8785 15.7038 13.7865C15.7448 13.6945 15.7668 13.5952 15.7686 13.4945C15.7704 13.3938 15.7518 13.2938 15.7141 13.2004C15.6764 13.107 15.6203 13.0222 15.549 12.951C15.4778 12.8797 15.393 12.8236 15.2996 12.7859C15.2062 12.7482 15.1062 12.7296 15.0055 12.7314C14.9048 12.7332 14.8055 12.7552 14.7135 12.7962C14.6215 12.8372 14.5387 12.8963 14.47 12.97L12.75 14.69V10.5Z" fill="currentColor"/>
</svg>
