<svg width="24" height="24" viewBox="0 0 24 24" fill="none" xmlns="http://www.w3.org/2000/svg">
<path fill-rule="evenodd" clip-rule="evenodd" d="M18.952 2.651C19.0446 2.72096 19.1197 2.81148 19.1715 2.91543C19.2232 3.01937 19.25 3.1339 19.25 3.25V17.303C19.2498 17.9548 19.0374 18.5889 18.6448 19.1093C18.2522 19.6296 17.7007 20.008 17.074 20.187L15.754 20.564C15.4301 20.6612 15.0902 20.6931 14.754 20.6579C14.4177 20.6226 14.0918 20.5209 13.7951 20.3587C13.4985 20.1965 13.237 19.977 13.0259 19.7129C12.8148 19.4488 12.6582 19.1454 12.5653 18.8203C12.4724 18.4952 12.445 18.1549 12.4847 17.8192C12.5244 17.4834 12.6303 17.1589 12.7965 16.8644C12.9626 16.5699 13.1855 16.3114 13.4524 16.1038C13.7192 15.8961 14.0247 15.7436 14.351 15.655L16.662 14.995C16.9754 14.9055 17.2511 14.7163 17.4474 14.4561C17.6437 14.196 17.7499 13.8789 17.75 13.553V7.994L8.74996 10.566V20.303C8.74983 20.9548 8.53738 21.5889 8.14477 22.1093C7.75216 22.6296 7.20074 23.008 6.57396 23.187L5.25396 23.564C4.92973 23.6625 4.58912 23.6955 4.25201 23.661C3.91489 23.6265 3.58802 23.5253 3.29043 23.3632C2.99285 23.2011 2.73052 22.9814 2.51874 22.7168C2.30695 22.4523 2.14995 22.1482 2.05689 21.8224C1.96383 21.4965 1.93657 21.1554 1.97671 20.8189C2.01684 20.4824 2.12356 20.1573 2.29064 19.8625C2.45772 19.5677 2.68183 19.3091 2.94989 19.1018C3.21795 18.8944 3.5246 18.7426 3.85196 18.655L6.16196 17.995C6.47535 17.9055 6.75106 17.7163 6.94737 17.4561C7.14367 17.196 7.24989 16.8789 7.24996 16.553V6.25C7.24999 6.08703 7.30311 5.92851 7.40126 5.79843C7.49941 5.66834 7.63727 5.57376 7.79396 5.529L18.294 2.529C18.4056 2.497 18.5231 2.49137 18.6373 2.51254C18.7515 2.53371 18.8592 2.58111 18.952 2.651Z" fill="currentColor"/>
</svg>
