<svg width="24" height="24" viewBox="0 0 24 24" fill="none" xmlns="http://www.w3.org/2000/svg">
<path fill-rule="evenodd" clip-rule="evenodd" d="M1.75 5.25C1.75 5.05109 1.82902 4.86032 1.96967 4.71967C2.11032 4.57902 2.30109 4.5 2.5 4.5H4C4.19891 4.5 4.38968 4.57902 4.53033 4.71967C4.67098 4.86032 4.75 5.05109 4.75 5.25V18.75C4.75 18.9489 4.67098 19.1397 4.53033 19.2803C4.38968 19.421 4.19891 19.5 4 19.5H2.5C2.30109 19.5 2.11032 19.421 1.96967 19.2803C1.82902 19.1397 1.75 18.9489 1.75 18.75V5.25ZM9.25 5.25C9.25 5.05109 9.32902 4.86032 9.46967 4.71967C9.61032 4.57902 9.80109 4.5 10 4.5H11.5C11.6989 4.5 11.8897 4.57902 12.0303 4.71967C12.171 4.86032 12.25 5.05109 12.25 5.25V18.75C12.25 18.9489 12.171 19.1397 12.0303 19.2803C11.8897 19.421 11.6989 19.5 11.5 19.5H10C9.80109 19.5 9.61032 19.421 9.46967 19.2803C9.32902 19.1397 9.25 18.9489 9.25 18.75V5.25Z" fill="currentColor"/>
</svg>
