<svg width="24" height="24" viewBox="0 0 24 24" fill="none" xmlns="http://www.w3.org/2000/svg">
<path fill-rule="evenodd" clip-rule="evenodd" d="M1.75 3.5C1.75 3.30109 1.82902 3.11032 1.96967 2.96967C2.11032 2.82902 2.30109 2.75 2.5 2.75H3.25C11.534 2.75 18.25 9.466 18.25 17.75V18.5C18.25 18.6989 18.171 18.8897 18.0303 19.0303C17.8897 19.171 17.6989 19.25 17.5 19.25H16.75C16.5511 19.25 16.3603 19.171 16.2197 19.0303C16.079 18.8897 16 18.6989 16 18.5V17.75C16 10.708 10.292 5 3.25 5H2.5C2.30109 5 2.11032 4.92098 1.96967 4.78033C1.82902 4.63968 1.75 4.44891 1.75 4.25V3.5ZM1.75 10.25C1.75 10.0511 1.82902 9.86032 1.96967 9.71967C2.11032 9.57902 2.30109 9.5 2.5 9.5H3.25C4.33341 9.5 5.4062 9.71339 6.40714 10.128C7.40807 10.5426 8.31755 11.1503 9.08363 11.9164C9.84971 12.6825 10.4574 13.5919 10.872 14.5929C11.2866 15.5938 11.5 16.6666 11.5 17.75V18.5C11.5 18.6989 11.421 18.8897 11.2803 19.0303C11.1397 19.171 10.9489 19.25 10.75 19.25H10C9.80109 19.25 9.61032 19.171 9.46967 19.0303C9.32902 18.8897 9.25 18.6989 9.25 18.5V17.75C9.25 16.1587 8.61786 14.6326 7.49264 13.5074C6.36742 12.3821 4.8413 11.75 3.25 11.75H2.5C2.30109 11.75 2.11032 11.671 1.96967 11.5303C1.82902 11.3897 1.75 11.1989 1.75 11V10.25ZM1.75 17.75C1.75 17.3522 1.90804 16.9706 2.18934 16.6893C2.47064 16.408 2.85218 16.25 3.25 16.25C3.64782 16.25 4.02936 16.408 4.31066 16.6893C4.59196 16.9706 4.75 17.3522 4.75 17.75C4.75 18.1478 4.59196 18.5294 4.31066 18.8107C4.02936 19.092 3.64782 19.25 3.25 19.25C2.85218 19.25 2.47064 19.092 2.18934 18.8107C1.90804 18.5294 1.75 18.1478 1.75 17.75Z" fill="currentColor"/>
</svg>
