<svg width="24" height="24" viewBox="0 0 24 24" fill="none" xmlns="http://www.w3.org/2000/svg">
<path d="M4.25 6.375C4.25 5.28098 4.6846 4.23177 5.45818 3.45818C6.23177 2.6846 7.28098 2.25 8.375 2.25C9.46902 2.25 10.5182 2.6846 11.2918 3.45818C12.0654 4.23177 12.5 5.28098 12.5 6.375C12.5 7.46902 12.0654 8.51823 11.2918 9.29182C10.5182 10.0654 9.46902 10.5 8.375 10.5C7.28098 10.5 6.23177 10.0654 5.45818 9.29182C4.6846 8.51823 4.25 7.46902 4.25 6.375ZM1.25 19.125C1.25 17.2353 2.00067 15.4231 3.33686 14.0869C4.67306 12.7507 6.48533 12 8.375 12C10.2647 12 12.0769 12.7507 13.4131 14.0869C14.7493 15.4231 15.5 17.2353 15.5 19.125V19.128L15.499 19.247C15.4969 19.3742 15.4624 19.4987 15.3989 19.6089C15.3354 19.7191 15.245 19.8114 15.136 19.877C13.0952 21.106 10.7573 21.7536 8.375 21.75C5.903 21.75 3.589 21.066 1.615 19.877C1.50585 19.8115 1.41517 19.7193 1.35149 19.6091C1.28781 19.4989 1.25323 19.3743 1.251 19.247L1.25 19.125ZM17.75 7.5C17.75 7.30109 17.671 7.11032 17.5303 6.96967C17.3897 6.82902 17.1989 6.75 17 6.75C16.8011 6.75 16.6103 6.82902 16.4697 6.96967C16.329 7.11032 16.25 7.30109 16.25 7.5V9.75H14C13.8011 9.75 13.6103 9.82902 13.4697 9.96967C13.329 10.1103 13.25 10.3011 13.25 10.5C13.25 10.6989 13.329 10.8897 13.4697 11.0303C13.6103 11.171 13.8011 11.25 14 11.25H16.25V13.5C16.25 13.6989 16.329 13.8897 16.4697 14.0303C16.6103 14.171 16.8011 14.25 17 14.25C17.1989 14.25 17.3897 14.171 17.5303 14.0303C17.671 13.8897 17.75 13.6989 17.75 13.5V11.25H20C20.1989 11.25 20.3897 11.171 20.5303 11.0303C20.671 10.8897 20.75 10.6989 20.75 10.5C20.75 10.3011 20.671 10.1103 20.5303 9.96967C20.3897 9.82902 20.1989 9.75 20 9.75H17.75V7.5Z" fill="currentColor"/>
</svg>
