<svg width="24" height="24" viewBox="0 0 24 24" fill="none" xmlns="http://www.w3.org/2000/svg">
<path d="M4.5 2.5C3.70435 2.5 2.94129 2.81607 2.37868 3.37868C1.81607 3.94129 1.5 4.70435 1.5 5.5V14.5C1.5 15.2956 1.81607 16.0587 2.37868 16.6213C2.94129 17.1839 3.70435 17.5 4.5 17.5H12.75C13.5456 17.5 14.3087 17.1839 14.8713 16.6213C15.4339 16.0587 15.75 15.2956 15.75 14.5V5.5C15.75 4.70435 15.4339 3.94129 14.8713 3.37868C14.3087 2.81607 13.5456 2.5 12.75 2.5H4.5ZM19.94 16.75L17.25 14.06V5.94L19.94 3.25C20.884 2.305 22.5 2.974 22.5 4.31V15.69C22.5 17.026 20.884 17.695 19.94 16.75Z" fill="currentColor"/>
</svg>
