<svg width="106" height="18" viewBox="0 0 106 18" fill="none" xmlns="http://www.w3.org/2000/svg">
<path d="M0 15.192V3.504C0 2.256 0.616 1.6 1.848 1.536H9.864C10.968 1.536 11.512 2 11.496 2.928V3.072C11.496 4.032 10.952 4.504 9.864 4.488H3.48V8.4H8.064C8.64 8.4 9.056 8.52 9.312 8.76C9.584 8.984 9.72 9.312 9.72 9.744V9.84C9.72 10.768 9.168 11.232 8.064 11.232H3.6V15.528C3.6 16.6 3.088 17.144 2.064 17.16H1.488C0.528 17.16 0.032 16.504 0 15.192Z" fill="url(#paint0_linear_123_1359)"/>
<path d="M14.4339 17.16H14.0979C13.6499 17.16 13.2739 17.048 12.9699 16.824C12.6819 16.6 12.5379 16.176 12.5379 15.552V0.768C12.5379 0.72 12.6659 0.648 12.9219 0.552C13.1779 0.44 13.4739 0.383999 13.8099 0.383999C14.1459 0.383999 14.4739 0.463999 14.7939 0.623999C15.1299 0.767999 15.4019 1.032 15.6099 1.416C15.8179 1.8 15.9219 2.36 15.9219 3.096V15.552C15.9219 16.16 15.7859 16.584 15.5139 16.824C15.2419 17.048 14.8819 17.16 14.4339 17.16Z" fill="url(#paint1_linear_123_1359)"/>
<path d="M18.4637 1.752C18.4637 1.208 18.6317 0.783999 18.9677 0.48C19.3037 0.16 19.7677 0 20.3597 0C20.9357 0 21.3917 0.16 21.7277 0.48C22.0637 0.783999 22.2317 1.208 22.2317 1.752C22.2317 2.824 21.6077 3.4 20.3597 3.48C19.1917 3.48 18.5597 2.904 18.4637 1.752ZM18.6317 15.552V6.864C18.6317 6.256 18.7757 5.832 19.0637 5.592C19.3517 5.352 19.7117 5.232 20.1437 5.232H20.5037C20.9517 5.232 21.3117 5.352 21.5837 5.592C21.8717 5.816 22.0157 6.24 22.0157 6.864V15.552C22.0157 16.16 21.8717 16.584 21.5837 16.824C21.3117 17.048 20.9517 17.16 20.5037 17.16H20.1677C19.7197 17.16 19.3517 17.048 19.0637 16.824C18.7757 16.6 18.6317 16.176 18.6317 15.552Z" fill="url(#paint2_linear_123_1359)"/>
<path d="M23.8631 16.08L27.4631 11.232L23.8871 6.336C23.8551 6.208 24.0231 5.992 24.3911 5.688C24.7591 5.368 25.2151 5.208 25.7591 5.208C26.5591 5.208 27.1911 5.616 27.6551 6.432L29.6471 9.432L31.6391 6.432C31.8791 6 32.1591 5.688 32.4791 5.496C32.8151 5.304 33.1431 5.208 33.4631 5.208C34.0551 5.208 34.5351 5.368 34.9031 5.688C35.2871 5.992 35.4551 6.208 35.4071 6.336L31.8071 11.232L35.3591 16.08C35.3911 16.144 35.3271 16.264 35.1671 16.44C35.0071 16.616 34.7751 16.792 34.4711 16.968C34.1831 17.128 33.8311 17.208 33.4151 17.208C32.6471 17.208 32.0391 16.8 31.5911 15.984L29.5991 13.008L27.6311 15.984C27.1831 16.8 26.5591 17.208 25.7591 17.208C25.2151 17.208 24.7511 17.048 24.3671 16.728C23.9831 16.408 23.8151 16.192 23.8631 16.08Z" fill="url(#paint3_linear_123_1359)"/>
<path d="M41.43 17.4C39.846 17.4 38.55 16.832 37.542 15.696C36.534 14.56 36.03 13.072 36.03 11.232C36.03 9.376 36.534 7.888 37.542 6.768C38.55 5.648 39.862 5.088 41.478 5.088C42.326 5.088 43.07 5.256 43.71 5.592C44.366 5.928 44.87 6.352 45.222 6.864V0.768C45.222 0.72 45.35 0.648 45.606 0.552C45.862 0.44 46.158 0.383999 46.494 0.383999C46.83 0.383999 47.158 0.463999 47.478 0.623999C47.814 0.767999 48.086 1.032 48.294 1.416C48.502 1.8 48.606 2.36 48.606 3.096V15.552C48.606 16.16 48.462 16.584 48.174 16.824C47.902 17.048 47.542 17.16 47.094 17.16H46.758C46.374 17.16 46.046 17.08 45.774 16.92C45.518 16.744 45.358 16.432 45.294 15.984C45.278 15.728 45.262 15.456 45.246 15.168C44.846 15.856 44.326 16.4 43.686 16.8C43.046 17.2 42.294 17.4 41.43 17.4ZM45.222 11.88V9.696C44.966 9.104 44.598 8.64 44.118 8.304C43.638 7.968 43.038 7.8 42.318 7.8C41.39 7.8 40.646 8.112 40.086 8.736C39.526 9.36 39.246 10.2 39.246 11.256C39.246 12.264 39.526 13.088 40.086 13.728C40.662 14.368 41.39 14.688 42.27 14.688C43.07 14.688 43.758 14.432 44.334 13.92C44.926 13.392 45.222 12.712 45.222 11.88Z" fill="url(#paint4_linear_123_1359)"/>
<path d="M57.3532 5.088C58.7292 5.088 59.4573 5.744 59.5373 7.056C59.5373 7.504 59.4493 7.864 59.2733 8.136C59.0973 8.392 58.9213 8.576 58.7453 8.688C58.5853 8.784 58.4892 8.824 58.4572 8.808C58.0892 8.44 57.5772 8.256 56.9212 8.256C56.0892 8.256 55.4813 8.592 55.0973 9.264C54.7293 9.936 54.5452 10.864 54.5452 12.048V15.552C54.5452 16.16 54.4013 16.584 54.1133 16.824C53.8413 17.048 53.4893 17.16 53.0573 17.16H52.6973C52.2493 17.16 51.8813 17.048 51.5933 16.824C51.3053 16.6 51.1613 16.176 51.1613 15.552V5.616C51.1613 5.568 51.2892 5.496 51.5452 5.4C51.8012 5.288 52.0973 5.232 52.4333 5.232C52.8013 5.232 53.1533 5.328 53.4893 5.52C53.8253 5.696 54.0892 6.024 54.2812 6.504C54.3612 6.744 54.4172 7.016 54.4492 7.32C54.6732 6.616 55.0252 6.072 55.5052 5.688C56.0012 5.288 56.6172 5.088 57.3532 5.088Z" fill="url(#paint5_linear_123_1359)"/>
<path d="M60.2409 13.992C60.2409 12.664 60.8729 11.688 62.1369 11.064C63.4169 10.44 65.2969 10.112 67.7769 10.08H68.1609C68.1609 9.952 68.1529 9.84 68.1369 9.744C68.0409 8.336 67.2489 7.632 65.7609 7.632C64.9449 7.632 64.3049 7.8 63.8409 8.136C63.3929 8.472 63.0649 8.872 62.8569 9.336C62.8569 9.352 62.7449 9.36 62.5209 9.36C62.2969 9.36 62.0409 9.328 61.7529 9.264C61.4809 9.184 61.2329 9.048 61.0089 8.856C60.7849 8.664 60.6729 8.376 60.6729 7.992C60.6729 7.464 60.9129 6.952 61.3929 6.456C61.7929 6.04 62.3689 5.712 63.1209 5.472C63.8889 5.216 64.8409 5.088 65.9769 5.088C67.8329 5.088 69.2169 5.504 70.1289 6.336C71.0409 7.168 71.4969 8.368 71.4969 9.936V16.848C71.4969 16.928 71.3609 17.008 71.0889 17.088C70.8329 17.184 70.5449 17.232 70.2249 17.232C69.8249 17.232 69.4649 17.144 69.1449 16.968C68.8409 16.792 68.6089 16.504 68.4489 16.104C68.3689 15.88 68.3129 15.616 68.2809 15.312C67.3049 16.656 65.9369 17.328 64.1769 17.328C62.9609 17.328 62.0009 17.024 61.2969 16.416C60.5929 15.792 60.2409 14.984 60.2409 13.992ZM68.1609 12.6V11.784H67.5129C66.1689 11.816 65.1449 11.984 64.4409 12.288C63.7529 12.576 63.4089 13.048 63.4089 13.704C63.4089 14.584 64.0169 15.064 65.2329 15.144C66.0809 15.144 66.7689 14.912 67.2969 14.448C67.8409 13.984 68.1289 13.368 68.1609 12.6Z" fill="url(#paint6_linear_123_1359)"/>
<path d="M88.5351 5.088C90.0391 5.088 91.1191 5.52 91.7751 6.384C92.4471 7.248 92.7831 8.368 92.7831 9.744V15.552C92.7831 16.16 92.6391 16.584 92.3511 16.824C92.0791 17.048 91.7191 17.16 91.2711 17.16H90.9351C90.4871 17.16 90.1191 17.048 89.8311 16.824C89.5431 16.6 89.3991 16.176 89.3991 15.552V10.296C89.3991 8.728 88.7191 7.944 87.3591 7.944C86.3831 7.944 85.6071 8.424 85.0311 9.384V15.552C85.0311 16.16 84.8871 16.584 84.5991 16.824C84.3271 17.048 83.9751 17.16 83.5431 17.16H83.1831C82.7351 17.16 82.3671 17.048 82.0791 16.824C81.7911 16.6 81.6471 16.176 81.6471 15.552V10.344C81.6471 8.728 80.9671 7.928 79.6071 7.944C78.6471 7.944 77.8791 8.424 77.3031 9.384V15.552C77.3031 16.16 77.1591 16.584 76.8711 16.824C76.5991 17.048 76.2471 17.16 75.8151 17.16H75.4551C75.0071 17.16 74.6391 17.048 74.3511 16.824C74.0631 16.6 73.9191 16.176 73.9191 15.552V5.616C73.9191 5.568 74.0471 5.496 74.3031 5.4C74.5591 5.288 74.8551 5.232 75.1911 5.232C75.6071 5.232 76.0071 5.36 76.3911 5.616C76.7911 5.872 77.0631 6.384 77.2071 7.152C77.6071 6.544 78.1031 6.048 78.6951 5.664C79.2871 5.28 80.0071 5.088 80.8551 5.088C81.8311 5.088 82.6231 5.304 83.2311 5.736C83.8551 6.168 84.3111 6.752 84.5991 7.488C84.9831 6.8 85.4871 6.232 86.1111 5.784C86.7511 5.32 87.5591 5.088 88.5351 5.088Z" fill="url(#paint7_linear_123_1359)"/>
<path d="M94.6003 13.992C94.6003 12.664 95.2323 11.688 96.4963 11.064C97.7763 10.44 99.6563 10.112 102.136 10.08H102.52C102.52 9.952 102.512 9.84 102.496 9.744C102.4 8.336 101.608 7.632 100.12 7.632C99.3043 7.632 98.6643 7.8 98.2003 8.136C97.7523 8.472 97.4243 8.872 97.2163 9.336C97.2163 9.352 97.1043 9.36 96.8803 9.36C96.6563 9.36 96.4003 9.328 96.1123 9.264C95.8403 9.184 95.5923 9.048 95.3683 8.856C95.1443 8.664 95.0323 8.376 95.0323 7.992C95.0323 7.464 95.2723 6.952 95.7523 6.456C96.1523 6.04 96.7283 5.712 97.4803 5.472C98.2483 5.216 99.2003 5.088 100.336 5.088C102.192 5.088 103.576 5.504 104.488 6.336C105.4 7.168 105.856 8.368 105.856 9.936V16.848C105.856 16.928 105.72 17.008 105.448 17.088C105.192 17.184 104.904 17.232 104.584 17.232C104.184 17.232 103.824 17.144 103.504 16.968C103.2 16.792 102.968 16.504 102.808 16.104C102.728 15.88 102.672 15.616 102.64 15.312C101.664 16.656 100.296 17.328 98.5363 17.328C97.3203 17.328 96.3603 17.024 95.6563 16.416C94.9523 15.792 94.6003 14.984 94.6003 13.992ZM102.52 12.6V11.784H101.872C100.528 11.816 99.5043 11.984 98.8003 12.288C98.1123 12.576 97.7683 13.048 97.7683 13.704C97.7683 14.584 98.3763 15.064 99.5923 15.144C100.44 15.144 101.128 14.912 101.656 14.448C102.2 13.984 102.488 13.368 102.52 12.6Z" fill="url(#paint8_linear_123_1359)"/>
<defs>
<linearGradient id="paint0_linear_123_1359" x1="-1.392" y1="11.064" x2="107.608" y2="11.064" gradientUnits="userSpaceOnUse">
<stop stop-color="#FFC28C"/>
<stop offset="0.5" stop-color="#EA60D5"/>
<stop offset="1" stop-color="#7D8DFF"/>
</linearGradient>
<linearGradient id="paint1_linear_123_1359" x1="-1.392" y1="11.064" x2="107.608" y2="11.064" gradientUnits="userSpaceOnUse">
<stop stop-color="#FFC28C"/>
<stop offset="0.5" stop-color="#EA60D5"/>
<stop offset="1" stop-color="#7D8DFF"/>
</linearGradient>
<linearGradient id="paint2_linear_123_1359" x1="-1.392" y1="11.064" x2="107.608" y2="11.064" gradientUnits="userSpaceOnUse">
<stop stop-color="#FFC28C"/>
<stop offset="0.5" stop-color="#EA60D5"/>
<stop offset="1" stop-color="#7D8DFF"/>
</linearGradient>
<linearGradient id="paint3_linear_123_1359" x1="-1.392" y1="11.064" x2="107.608" y2="11.064" gradientUnits="userSpaceOnUse">
<stop stop-color="#FFC28C"/>
<stop offset="0.5" stop-color="#EA60D5"/>
<stop offset="1" stop-color="#7D8DFF"/>
</linearGradient>
<linearGradient id="paint4_linear_123_1359" x1="-1.392" y1="11.064" x2="107.608" y2="11.064" gradientUnits="userSpaceOnUse">
<stop stop-color="#FFC28C"/>
<stop offset="0.5" stop-color="#EA60D5"/>
<stop offset="1" stop-color="#7D8DFF"/>
</linearGradient>
<linearGradient id="paint5_linear_123_1359" x1="-1.392" y1="11.064" x2="107.608" y2="11.064" gradientUnits="userSpaceOnUse">
<stop stop-color="#FFC28C"/>
<stop offset="0.5" stop-color="#EA60D5"/>
<stop offset="1" stop-color="#7D8DFF"/>
</linearGradient>
<linearGradient id="paint6_linear_123_1359" x1="-1.392" y1="11.064" x2="107.608" y2="11.064" gradientUnits="userSpaceOnUse">
<stop stop-color="#FFC28C"/>
<stop offset="0.5" stop-color="#EA60D5"/>
<stop offset="1" stop-color="#7D8DFF"/>
</linearGradient>
<linearGradient id="paint7_linear_123_1359" x1="-1.392" y1="11.064" x2="107.608" y2="11.064" gradientUnits="userSpaceOnUse">
<stop stop-color="#FFC28C"/>
<stop offset="0.5" stop-color="#EA60D5"/>
<stop offset="1" stop-color="#7D8DFF"/>
</linearGradient>
<linearGradient id="paint8_linear_123_1359" x1="-1.392" y1="11.064" x2="107.608" y2="11.064" gradientUnits="userSpaceOnUse">
<stop stop-color="#FFC28C"/>
<stop offset="0.5" stop-color="#EA60D5"/>
<stop offset="1" stop-color="#7D8DFF"/>
</linearGradient>
</defs>
</svg>
