<svg width="101" height="22" viewBox="0 0 101 22" fill="none" xmlns="http://www.w3.org/2000/svg">
<path d="M3.44125 2.9V10.4C3.44125 11.36 3.54792 12.0333 3.76125 12.42C3.98792 12.7933 4.38792 12.98 4.96125 12.98H5.18125C5.62125 12.98 5.84792 13.5933 5.86125 14.82C5.86125 15.4333 5.80125 15.92 5.68125 16.28C5.57458 16.64 5.40792 16.82 5.18125 16.82H4.48125C2.96125 16.82 1.86792 16.3733 1.20125 15.48C0.547917 14.5733 0.20125 13.2133 0.16125 11.4L0.00125 5.56C-0.0120834 4.81333 0.08125 4.23333 0.28125 3.82C0.494583 3.39333 0.78125 3.1 1.14125 2.94C1.50125 2.78 1.88125 2.7 2.28125 2.7C2.68125 2.7 3.06792 2.76667 3.44125 2.9Z" fill="url(#paint0_linear_493_8614)"/>
<path d="M8.49406 15.14C8.12073 15.74 7.65406 16.1733 7.09406 16.44C6.53406 16.6933 5.88073 16.82 5.13406 16.82C4.69406 16.82 4.46073 16.1533 4.43406 14.82C4.43406 14.2067 4.50073 13.7467 4.63406 13.44C4.7674 13.1333 4.93406 12.98 5.13406 12.98C5.61406 12.98 6.01406 12.8533 6.33406 12.6C6.6674 12.3333 7.09406 11.7 7.61406 10.7C8.64073 8.72667 10.0207 7.74 11.7541 7.74C12.9807 7.74 14.0007 8.16 14.8141 9C15.6274 9.84 16.0341 10.9867 16.0341 12.44C16.0341 13.7867 15.6674 14.88 14.9341 15.72C14.2141 16.5467 13.3007 16.96 12.1941 16.96C11.0741 16.96 9.84073 16.3533 8.49406 15.14ZM9.67406 12.36C10.5674 13.12 11.3407 13.5 11.9941 13.5C12.7941 13.5 13.1941 13.1067 13.1941 12.32C13.1941 11.4133 12.7074 10.9267 11.7341 10.86C11.2807 10.86 10.8941 10.98 10.5741 11.22C10.2541 11.46 9.95406 11.84 9.67406 12.36Z" fill="url(#paint1_linear_493_8614)"/>
<path d="M18.1895 16.62L18.0295 5.56C18.0295 4.81333 18.1295 4.23333 18.3295 3.82C18.5295 3.39333 18.7962 3.1 19.1295 2.94C19.4762 2.76667 19.8429 2.68 20.2295 2.68C20.7495 2.68 21.1629 2.74667 21.4695 2.88V13.12C21.4695 14.5067 21.3095 15.48 20.9895 16.04C20.6829 16.5867 20.1695 16.86 19.4495 16.86C18.9295 16.86 18.5095 16.78 18.1895 16.62Z" fill="url(#paint2_linear_493_8614)"/>
<path d="M28.3039 14.62C28.3039 16.7133 27.8439 18.4067 26.9239 19.7C26.0172 21.0067 24.7172 21.66 23.0239 21.66C22.0506 21.66 21.2839 21.3933 20.7239 20.86C20.1772 20.34 19.9039 19.76 19.9039 19.12C19.9039 18.7333 20.0039 18.3933 20.2039 18.1C20.4039 17.82 20.6572 17.6 20.9639 17.44C21.3639 17.72 21.8706 17.86 22.4839 17.86C24.3106 17.86 25.4172 16.78 25.8039 14.62C25.4039 13.8333 24.9772 13.0733 24.5239 12.34C24.2706 11.98 24.1039 11.68 24.0239 11.44C23.9572 11.1867 23.9239 10.9467 23.9239 10.72C23.9239 10.1733 24.1639 9.7 24.6439 9.3C25.1372 8.88667 25.8372 8.64 26.7439 8.56C27.1439 9.2 27.5039 10.0733 27.8239 11.18C28.1439 12.2733 28.3039 13.4133 28.3039 14.6V14.62Z" fill="url(#paint3_linear_493_8614)"/>
<path d="M32.85 10.62C32.7567 10.8333 32.71 11.1 32.71 11.42C32.71 11.8867 32.8833 12.2667 33.23 12.56C33.59 12.8533 34.23 13 35.15 13C36.0433 13 36.65 12.9 36.97 12.7C37.29 12.5 37.45 12.2333 37.45 11.9C37.45 11.4733 37.1967 11.0333 36.69 10.58C36.1833 10.1133 35.29 9.47333 34.01 8.66C33.5567 8.36667 33.23 8.08667 33.03 7.82C32.83 7.54 32.73 7.18667 32.73 6.76C32.73 6.30667 32.9167 5.9 33.29 5.54C33.6767 5.18 34.15 4.96 34.71 4.88C36.5767 5.86667 37.9767 6.99333 38.91 8.26C39.8433 9.51333 40.31 10.82 40.31 12.18C40.31 13.0467 40.1167 13.8333 39.73 14.54C39.3567 15.2333 38.7833 15.7867 38.01 16.2C37.2367 16.6133 36.27 16.82 35.11 16.82C33.99 16.82 33.0567 16.6533 32.31 16.32C31.5767 15.9733 31.0233 15.5133 30.65 14.94C30.29 14.3533 30.11 13.7067 30.11 13C30.11 12.1467 30.3233 11.5067 30.75 11.08C31.1767 10.6533 31.63 10.44 32.11 10.44C32.4567 10.44 32.7033 10.5 32.85 10.62Z" fill="url(#paint4_linear_493_8614)"/>
<path d="M66.8673 12.98C67.294 12.98 67.514 13.5933 67.5273 14.82C67.5273 15.4067 67.4673 15.8867 67.3473 16.26C67.2407 16.6333 67.0807 16.82 66.8673 16.82C65.3873 16.82 64.3607 16.2133 63.7873 15C63.5873 15.5733 63.2873 16.02 62.8873 16.34C62.4873 16.66 61.9673 16.82 61.3273 16.82C60.074 16.82 59.2407 16.22 58.8273 15.02C58.5873 15.58 58.2607 16.02 57.8473 16.34C57.434 16.66 56.914 16.82 56.2873 16.82C55.634 16.82 55.1873 16.68 54.9473 16.4C54.8007 18.12 54.1807 19.4533 53.0873 20.4C52.0073 21.36 50.5007 21.84 48.5673 21.84C46.554 21.84 44.9873 21.3467 43.8673 20.36C42.7473 19.3867 42.174 17.9933 42.1473 16.18C42.1473 15.3 42.2807 14.5533 42.5473 13.94C42.814 13.3267 43.1473 12.86 43.5473 12.54C43.9607 12.22 44.3873 12.06 44.8273 12.06C45.2273 12.06 45.574 12.1733 45.8673 12.4C45.6673 12.6933 45.5007 13.06 45.3673 13.5C45.234 13.94 45.1673 14.46 45.1673 15.06C45.1673 16.0867 45.454 16.84 46.0273 17.32C46.6007 17.8133 47.454 18.06 48.5873 18.06C49.894 18.06 50.814 17.84 51.3473 17.4C51.894 16.9733 52.1673 16.4067 52.1673 15.7C52.1673 15.06 52.0407 14.28 51.7873 13.36C51.694 13.0133 51.6207 12.7067 51.5673 12.44C51.514 12.16 51.4873 11.8667 51.4873 11.56C51.4873 10.9867 51.7407 10.52 52.2473 10.16C52.7673 9.8 53.434 9.62 54.2473 9.62C54.4873 10.5667 54.714 11.2867 54.9273 11.78C55.1407 12.26 55.354 12.58 55.5673 12.74C55.7807 12.9 56.0207 12.98 56.2873 12.98C56.6073 12.98 56.834 12.8933 56.9673 12.72C57.1007 12.5333 57.1673 12.2733 57.1673 11.94C57.1673 11.4333 57.154 10.9467 57.1273 10.48C57.1273 10.08 57.2873 9.74667 57.6073 9.48C57.9407 9.2 58.374 9.06 58.9073 9.06C59.4273 9.06 59.8473 9.17333 60.1673 9.4V10.66C60.1673 11.5667 60.254 12.18 60.4273 12.5C60.6007 12.82 60.8673 12.98 61.2273 12.98C61.774 12.98 62.0407 12.6133 62.0273 11.88C62.0273 11.56 62.014 11.2467 61.9873 10.94C61.9607 10.6333 61.9473 10.3 61.9473 9.94C61.9473 9.47333 62.1073 9.09333 62.4273 8.8C62.7607 8.50667 63.2073 8.36 63.7673 8.36C64.2873 8.36 64.7007 8.46667 65.0073 8.68V10.46C65.0073 11.42 65.154 12.08 65.4473 12.44C65.7407 12.8 66.214 12.98 66.8673 12.98Z" fill="url(#paint5_linear_493_8614)"/>
<path d="M66.1919 14.86C66.1919 14.1933 66.2519 13.7133 66.3719 13.42C66.4919 13.1267 66.6585 12.98 66.8719 12.98H68.9319C69.4385 12.98 69.7985 12.92 70.0119 12.8C70.2252 12.6667 70.3319 12.4867 70.3319 12.26C70.3319 11.86 70.0785 11.3467 69.5719 10.72L67.3119 7.74C67.1785 6.54 67.6585 5.68 68.7519 5.16L72.7519 3.16C73.4185 2.8 74.0385 2.62 74.6119 2.62C75.3185 2.62 75.8385 2.83333 76.1719 3.26C76.5185 3.68667 76.6519 4.29333 76.5719 5.08L71.3119 7.5L73.9519 11.08C74.4852 11.8267 74.9452 12.3333 75.3319 12.6C75.7185 12.8533 76.1985 12.98 76.7719 12.98H77.0519C77.5185 12.98 77.7452 13.5933 77.7319 14.82C77.7319 15.4333 77.6785 15.92 77.5719 16.28C77.4652 16.64 77.2919 16.82 77.0519 16.82H76.6319C75.7652 16.82 74.9852 16.64 74.2919 16.28C73.6119 15.92 72.9319 15.2933 72.2519 14.4C72.2785 14.6133 72.2319 14.86 72.1119 15.14C71.9652 15.66 71.6319 16.0733 71.1119 16.38C70.5919 16.6733 69.7585 16.82 68.6119 16.82H66.8719C66.4585 16.82 66.2319 16.1667 66.1919 14.86Z" fill="url(#paint6_linear_493_8614)"/>
<path d="M84.2277 12.98H84.5077C84.7477 12.98 84.921 13.1467 85.0277 13.48C85.1343 13.8133 85.1877 14.26 85.1877 14.82C85.1877 15.4333 85.1343 15.92 85.0277 16.28C84.921 16.64 84.7477 16.82 84.5077 16.82H84.1877C83.5477 16.82 83.0143 16.7133 82.5877 16.5C82.1743 16.2733 81.8277 15.94 81.5477 15.5C81.4943 15.42 81.441 15.3267 81.3877 15.22C80.961 15.82 80.421 16.24 79.7677 16.48C79.1277 16.7067 78.3943 16.82 77.5677 16.82H77.0477C76.5943 16.82 76.3677 16.1533 76.3677 14.82C76.3677 14.26 76.4277 13.8133 76.5477 13.48C76.6677 13.1467 76.8343 12.98 77.0477 12.98H77.7677C78.7143 12.98 79.1743 12.5933 79.1477 11.82C79.1477 11.2333 79.1277 10.7467 79.0877 10.36C79.0877 9.85333 79.261 9.44667 79.6077 9.14C79.9543 8.83333 80.4743 8.68 81.1677 8.68C81.6743 8.68 82.0943 8.78667 82.4277 9V10.7C82.4277 11.62 82.561 12.2333 82.8277 12.54C83.0943 12.8333 83.561 12.98 84.2277 12.98ZM79.0077 17.38C79.4077 17.38 79.821 17.4667 80.2477 17.64C80.4077 18.08 80.4877 18.48 80.4877 18.84C80.4877 19.3333 80.3543 19.72 80.0877 20C79.8343 20.2933 79.4543 20.44 78.9477 20.44C78.5343 20.44 78.1143 20.3333 77.6877 20.12C77.4877 19.72 77.3877 19.32 77.3877 18.92C77.3877 18.4133 77.541 18.0267 77.8477 17.76C78.1543 17.5067 78.541 17.38 79.0077 17.38ZM82.6677 17.38C83.0677 17.38 83.481 17.4667 83.9077 17.64C84.0677 18.08 84.1477 18.48 84.1477 18.84C84.1477 19.3333 84.0143 19.72 83.7477 20C83.4943 20.2933 83.1143 20.44 82.6077 20.44C82.1677 20.44 81.7477 20.3333 81.3477 20.12C81.1477 19.72 81.0477 19.32 81.0477 18.92C81.0477 18.4133 81.1943 18.0267 81.4877 17.76C81.7943 17.5067 82.1877 17.38 82.6677 17.38Z" fill="url(#paint7_linear_493_8614)"/>
<path d="M83.8286 14.82C83.8286 13.66 84.0543 13.0467 84.5077 12.98H84.7886C85.2019 12.98 85.5153 12.8533 85.7286 12.6C85.9553 12.3333 86.0686 11.86 86.0686 11.18C86.0686 9.94 86.0353 8.85333 85.9686 7.92C85.9153 6.97333 85.8886 6.10667 85.8886 5.32C85.8886 3.52 86.6286 2.62 88.1086 2.62C88.5486 2.62 88.9619 2.68 89.3486 2.8L89.3686 10.86C89.3686 11.7 89.4819 12.2667 89.7086 12.56C89.9353 12.84 90.2753 12.98 90.7286 12.98H91.0486C91.2886 12.98 91.4619 13.1467 91.5686 13.48C91.6753 13.8133 91.7286 14.26 91.7286 14.82C91.7286 15.4333 91.6753 15.92 91.5686 16.28C91.4619 16.64 91.2886 16.82 91.0486 16.82H90.7286C90.1286 16.82 89.5953 16.6733 89.1286 16.38C88.6753 16.0733 88.3419 15.6467 88.1286 15.1C87.8486 15.6333 87.4286 16.0533 86.8686 16.36C86.3219 16.6667 85.7019 16.82 85.0086 16.82H84.5077C84.0543 16.82 83.8286 16.1533 83.8286 14.82Z" fill="url(#paint8_linear_493_8614)"/>
<path d="M96.9316 0.3C97.1182 0.766667 97.2116 1.2 97.2116 1.6C97.2116 2.13333 97.0649 2.56 96.7716 2.88C96.4782 3.18667 96.0582 3.34 95.5116 3.34C95.0716 3.34 94.6249 3.22667 94.1716 3C93.9449 2.54667 93.8316 2.11333 93.8316 1.7C93.8316 1.15333 93.9982 0.733334 94.3316 0.44C94.6649 0.146667 95.0849 0 95.5916 0C96.0316 0 96.4782 0.0999999 96.9316 0.3ZM90.3516 14.86C90.3516 13.62 90.5849 12.9933 91.0516 12.98H92.6516C94.2382 12.98 95.3782 12.8267 96.0716 12.52C96.7649 12.2 97.1849 11.7333 97.3316 11.12C97.1316 11.36 96.8649 11.5533 96.5316 11.7C96.1982 11.8467 95.7716 11.92 95.2516 11.92C94.1716 11.92 93.2582 11.56 92.5116 10.84C91.7649 10.1067 91.3916 9.17333 91.3916 8.04C91.4049 6.84 91.7916 5.84667 92.5516 5.06C93.3249 4.26 94.3182 3.86 95.5316 3.86C96.4249 3.86 97.2182 4.1 97.9116 4.58C98.6049 5.06 99.1516 5.77333 99.5516 6.72C99.9649 7.66667 100.172 8.84667 100.172 10.26C100.172 12.3933 99.5249 14.02 98.2316 15.14C96.9516 16.26 95.0449 16.82 92.5116 16.82H91.0516C90.7982 16.82 90.6182 16.64 90.5116 16.28C90.4049 15.92 90.3516 15.4467 90.3516 14.86ZM93.9516 7.92C93.9516 8.24 94.0982 8.50667 94.3916 8.72C94.6982 8.92 95.1182 9.02 95.6516 9.02C96.2116 9.02 96.7049 8.91333 97.1316 8.7C97.0649 8.1 96.8649 7.62667 96.5316 7.28C96.2116 6.93333 95.8116 6.76 95.3316 6.76C94.9182 6.76 94.5849 6.87333 94.3316 7.1C94.0782 7.31333 93.9516 7.58667 93.9516 7.92Z" fill="url(#paint9_linear_493_8614)"/>
<defs>
<linearGradient id="paint0_linear_493_8614" x1="-1.88989" y1="11.6001" x2="101.11" y2="11.6001" gradientUnits="userSpaceOnUse">
<stop stop-color="#4079BF"/>
<stop offset="0.5" stop-color="#7E3DB7"/>
<stop offset="1" stop-color="#D78D87"/>
</linearGradient>
<linearGradient id="paint1_linear_493_8614" x1="-1.88989" y1="11.6001" x2="101.11" y2="11.6001" gradientUnits="userSpaceOnUse">
<stop stop-color="#4079BF"/>
<stop offset="0.5" stop-color="#7E3DB7"/>
<stop offset="1" stop-color="#D78D87"/>
</linearGradient>
<linearGradient id="paint2_linear_493_8614" x1="-1.88989" y1="11.6001" x2="101.11" y2="11.6001" gradientUnits="userSpaceOnUse">
<stop stop-color="#4079BF"/>
<stop offset="0.5" stop-color="#7E3DB7"/>
<stop offset="1" stop-color="#D78D87"/>
</linearGradient>
<linearGradient id="paint3_linear_493_8614" x1="-1.88989" y1="11.6001" x2="101.11" y2="11.6001" gradientUnits="userSpaceOnUse">
<stop stop-color="#4079BF"/>
<stop offset="0.5" stop-color="#7E3DB7"/>
<stop offset="1" stop-color="#D78D87"/>
</linearGradient>
<linearGradient id="paint4_linear_493_8614" x1="-1.88989" y1="11.6001" x2="101.11" y2="11.6001" gradientUnits="userSpaceOnUse">
<stop stop-color="#4079BF"/>
<stop offset="0.5" stop-color="#7E3DB7"/>
<stop offset="1" stop-color="#D78D87"/>
</linearGradient>
<linearGradient id="paint5_linear_493_8614" x1="-1.88989" y1="11.6001" x2="101.11" y2="11.6001" gradientUnits="userSpaceOnUse">
<stop stop-color="#4079BF"/>
<stop offset="0.5" stop-color="#7E3DB7"/>
<stop offset="1" stop-color="#D78D87"/>
</linearGradient>
<linearGradient id="paint6_linear_493_8614" x1="-1.88989" y1="11.6001" x2="101.11" y2="11.6001" gradientUnits="userSpaceOnUse">
<stop stop-color="#4079BF"/>
<stop offset="0.5" stop-color="#7E3DB7"/>
<stop offset="1" stop-color="#D78D87"/>
</linearGradient>
<linearGradient id="paint7_linear_493_8614" x1="-1.88989" y1="11.6001" x2="101.11" y2="11.6001" gradientUnits="userSpaceOnUse">
<stop stop-color="#4079BF"/>
<stop offset="0.5" stop-color="#7E3DB7"/>
<stop offset="1" stop-color="#D78D87"/>
</linearGradient>
<linearGradient id="paint8_linear_493_8614" x1="-1.88989" y1="11.6001" x2="101.11" y2="11.6001" gradientUnits="userSpaceOnUse">
<stop stop-color="#4079BF"/>
<stop offset="0.5" stop-color="#7E3DB7"/>
<stop offset="1" stop-color="#D78D87"/>
</linearGradient>
<linearGradient id="paint9_linear_493_8614" x1="-1.88989" y1="11.6001" x2="101.11" y2="11.6001" gradientUnits="userSpaceOnUse">
<stop stop-color="#4079BF"/>
<stop offset="0.5" stop-color="#7E3DB7"/>
<stop offset="1" stop-color="#D78D87"/>
</linearGradient>
</defs>
</svg>
