<svg width="10" height="10" viewBox="0 0 10 10" fill="none" xmlns="http://www.w3.org/2000/svg">
<path opacity="0.1" d="M4.89588 7.07437L4.89438 7.07347L4.88868 7.07047C4.77029 7.00606 4.65403 6.93782 4.54008 6.86587C4.26838 6.69492 4.0095 6.50441 3.76548 6.29587C3.21348 5.81977 2.59998 5.10547 2.59998 4.24987C2.6 3.9707 2.68657 3.69842 2.84776 3.47049C3.00895 3.24257 3.23684 3.07022 3.50004 2.97718C3.76324 2.88414 4.04881 2.87498 4.31743 2.95096C4.58605 3.02695 4.82451 3.18434 4.99998 3.40147C5.17544 3.18434 5.4139 3.02695 5.68252 2.95096C5.95114 2.87498 6.23671 2.88414 6.49992 2.97718C6.76312 3.07022 6.991 3.24257 7.15219 3.47049C7.31338 3.69842 7.39995 3.9707 7.39998 4.24987C7.39998 5.10547 6.78678 5.81977 6.23448 6.29587C5.88778 6.59209 5.51138 6.85167 5.11128 7.07047L5.10558 7.07347L5.10408 7.07437H5.10348C5.0716 7.09125 5.03609 7.10011 5.00001 7.10016C4.96394 7.10021 4.9284 7.09146 4.89648 7.07467L4.89588 7.07437Z" fill="#DC2626"/>
</svg>
