<svg width="10" height="10" viewBox="0 0 10 10" fill="none" xmlns="http://www.w3.org/2000/svg">
<path opacity="0.1" fill-rule="evenodd" clip-rule="evenodd" d="M5.00033 3C5.0462 3.00003 5.09103 3.01425 5.12917 3.04087C5.16731 3.06749 5.19706 3.10532 5.21468 3.14958L5.65142 4.24812L6.78632 4.34298C6.83204 4.34683 6.87566 4.36474 6.91166 4.39446C6.94767 4.42417 6.97445 4.46437 6.98863 4.50998C7.00281 4.55558 7.00375 4.60455 6.99134 4.65072C6.97893 4.69688 6.95372 4.73817 6.91889 4.76938L6.05439 5.54318L6.3186 6.70065C6.32922 6.74728 6.32639 6.79615 6.31048 6.84111C6.29456 6.88607 6.26628 6.9251 6.22918 6.95328C6.19208 6.98146 6.14784 6.99753 6.10202 6.99948C6.05619 7.00142 6.01085 6.98914 5.97169 6.96419L4.99971 6.3445L4.02867 6.96452C3.98951 6.98946 3.94416 7.00174 3.89834 6.9998C3.85252 6.99786 3.80827 6.98178 3.77118 6.9536C3.73408 6.92542 3.70579 6.88639 3.68988 6.84143C3.67397 6.79648 3.67114 6.7476 3.68175 6.70097L3.94566 5.54383L3.08147 4.77003C3.04655 4.73886 3.02124 4.69758 3.00876 4.65139C2.99627 4.6052 2.99716 4.55618 3.01131 4.51051C3.02546 4.46485 3.05224 4.4246 3.08827 4.39484C3.1243 4.36508 3.16796 4.34714 3.21373 4.34331L4.34832 4.24844L4.78506 3.1499C4.80269 3.10543 4.83256 3.06743 4.87089 3.04074C4.90922 3.01405 4.95428 2.99987 5.00033 3Z" fill="#CA8A04"/>
</svg>
