<svg width="85" height="80" viewBox="0 0 85 80" fill="none" xmlns="http://www.w3.org/2000/svg">
<g style="mix-blend-mode:overlay">
<path d="M39.8437 6.4375C41.6357 2.12966 47.7479 2.12974 49.54 6.4375L57.8681 26.4619L79.4843 28.1973C84.1401 28.5695 86.0282 34.378 82.4804 37.418L66.0117 51.5254L71.04 72.6182C72.1236 77.162 67.184 80.7493 63.2002 78.3174L44.6923 67.0137L26.1836 78.3174C22.1997 80.7491 17.2602 77.1579 18.3437 72.6182L23.372 51.5254L6.90426 37.418C3.35626 34.378 5.24436 28.5693 9.90036 28.1973L31.5156 26.4619L39.8437 6.4375Z" fill="url(#paint0_radial_517_8676)"/>
<path d="M5.43454 54.6035C5.71468 53.931 6.66897 53.931 6.94918 54.6035L8.25094 57.7324L11.6279 58.0039C12.3553 58.062 12.6506 58.9693 12.0966 59.4443L9.5234 61.6494L10.3086 64.9443C10.4779 65.6543 9.70645 66.215 9.08395 65.835L6.19235 64.0693L3.29977 65.835C2.6773 66.2148 1.9058 65.6537 2.07516 64.9443L2.86032 61.6494L0.288051 59.4443C-0.266324 58.9693 0.0283245 58.062 0.755825 58.0039L4.13375 57.7324L5.43454 54.6035Z" fill="url(#paint1_radial_517_8676)"/>
<path d="M71.4804 0.807618C71.9286 -0.269128 73.4563 -0.269284 73.9043 0.807618L75.9863 5.81348L81.3896 6.24805C82.5536 6.34105 83.0256 7.79274 82.1386 8.55274L78.0224 12.0801L79.2793 17.3525C79.5503 18.4885 78.3153 19.3853 77.3193 18.7773L72.6923 15.9521L68.0654 18.7773C67.0694 19.3853 65.8344 18.4875 66.1054 17.3525L67.3623 12.0801L63.2451 8.55274C62.3581 7.79274 62.8301 6.34105 63.9941 6.24805L69.3984 5.81348L71.4804 0.807618Z" fill="url(#paint2_radial_517_8676)"/>
</g>
<defs>
<radialGradient id="paint0_radial_517_8676" cx="0" cy="0" r="1" gradientTransform="matrix(56.5051 0.500004 -0.523199 54 42.3787 39.5)" gradientUnits="userSpaceOnUse">
<stop stop-color="#F9FAFB" stop-opacity="0.4"/>
<stop offset="1" stop-color="#F9FAFB" stop-opacity="0"/>
</radialGradient>
<radialGradient id="paint1_radial_517_8676" cx="0" cy="0" r="1" gradientTransform="matrix(56.5051 0.500004 -0.523199 54 42.3787 39.5)" gradientUnits="userSpaceOnUse">
<stop stop-color="#F9FAFB" stop-opacity="0.4"/>
<stop offset="1" stop-color="#F9FAFB" stop-opacity="0"/>
</radialGradient>
<radialGradient id="paint2_radial_517_8676" cx="0" cy="0" r="1" gradientTransform="matrix(56.5051 0.500004 -0.523199 54 42.3787 39.5)" gradientUnits="userSpaceOnUse">
<stop stop-color="#F9FAFB" stop-opacity="0.4"/>
<stop offset="1" stop-color="#F9FAFB" stop-opacity="0"/>
</radialGradient>
</defs>
</svg>
