<svg width="21" height="18" viewBox="0 0 21 18" fill="none" xmlns="http://www.w3.org/2000/svg">
<path fill-rule="evenodd" clip-rule="evenodd" d="M19.4131 6L18.8721 15.1758C18.8272 15.9396 18.4922 16.6577 17.9355 17.1826C17.3788 17.7076 16.6422 18 15.877 18H5.12012C4.35528 17.9995 3.61979 17.7065 3.06348 17.1816C2.50716 16.6567 2.17183 15.9393 2.12695 15.1758L1.58691 6H19.4131ZM8.5 9C8.30109 9 8.11038 9.07908 7.96973 9.21973C7.82907 9.36038 7.75 9.55109 7.75 9.75C7.75 9.94891 7.82907 10.1396 7.96973 10.2803C8.11038 10.4209 8.30109 10.5 8.5 10.5H12.5C12.6989 10.5 12.8896 10.4209 13.0303 10.2803C13.1709 10.1396 13.25 9.94891 13.25 9.75C13.25 9.55109 13.1709 9.36038 13.0303 9.21973C12.8896 9.07908 12.6989 9 12.5 9H8.5Z" fill="url(#paint0_linear_494_8659)"/>
<path d="M19.125 0C20.16 2.64138e-06 21 0.839002 21 1.875V2.625C21 3.66 20.16 4.5 19.125 4.5H1.875C0.84 4.5 0 3.661 0 2.625V1.875C0 0.84 0.839 0 1.875 0H19.125Z" fill="url(#paint1_linear_494_8659)"/>
<defs>
<linearGradient id="paint0_linear_494_8659" x1="10.5005" y1="-5.94227" x2="10.5005" y2="26.9782" gradientUnits="userSpaceOnUse">
<stop offset="0.490385" stop-color="#C084FC"/>
<stop offset="1" stop-color="#7E22CE"/>
</linearGradient>
<linearGradient id="paint1_linear_494_8659" x1="10.5005" y1="-5.94227" x2="10.5005" y2="26.9782" gradientUnits="userSpaceOnUse">
<stop offset="0.490385" stop-color="#C084FC"/>
<stop offset="1" stop-color="#7E22CE"/>
</linearGradient>
</defs>
</svg>
