<svg width="20" height="20" viewBox="0 0 20 20" fill="none" xmlns="http://www.w3.org/2000/svg">
<path d="M17.5 1.25H14.1367L14.0977 1.28906L9.13672 6.25H12.7344L12.7734 6.21094L17.7266 1.26172C17.6523 1.25391 17.5781 1.25 17.5 1.25ZM20 6.25V3.75C20 3.16016 19.793 2.61328 19.4531 2.1875L15.3906 6.25H20ZM11.4883 1.25H7.89062L7.85156 1.28906L2.88672 6.25H6.48438L6.52344 6.21094L11.4844 1.25H11.4883ZM2.5 1.25C1.12109 1.25 0 2.37109 0 3.75V6.25H0.238281L0.277344 6.21094L5.23828 1.25H2.5ZM20 7.5H0V16.25C0 17.6289 1.12109 18.75 2.5 18.75H17.5C18.8789 18.75 20 17.6289 20 16.25V7.5Z" fill="#F9FAFB"/>
</svg>
