<svg width="21" height="18" viewBox="0 0 21 18" fill="none" xmlns="http://www.w3.org/2000/svg">
<path fill-rule="evenodd" clip-rule="evenodd" d="M8.37891 0C8.67445 0.000128741 8.96725 0.0586304 9.24023 0.171875C9.51315 0.285108 9.76092 0.451102 9.96973 0.660156L12.0908 2.78027C12.2313 2.92093 12.4223 2.99982 12.6211 3H18C18.7956 3 19.5585 3.3163 20.1211 3.87891C20.6837 4.44152 21 5.20435 21 6V15C21 15.7956 20.6837 16.5585 20.1211 17.1211C19.5585 17.6837 18.7956 18 18 18H3C2.20435 18 1.44152 17.6837 0.878906 17.1211C0.316297 16.5585 0 15.7956 0 15V3C0 2.20435 0.316297 1.44152 0.878906 0.878906C1.44152 0.316299 2.20435 0 3 0H8.37891ZM10.5 6.75C10.3011 6.75 10.1104 6.82908 9.96973 6.96973C9.82907 7.11038 9.75 7.30109 9.75 7.5V11.6904L8.03027 9.96973C7.88819 9.83734 7.70002 9.76523 7.50586 9.76855C7.31156 9.77198 7.12569 9.85087 6.98828 9.98828C6.85087 10.1257 6.77198 10.3116 6.76855 10.5059C6.76523 10.7 6.83733 10.8882 6.96973 11.0303L9.96973 14.0303C10.1104 14.1707 10.3013 14.249 10.5 14.249C10.6987 14.249 10.8896 14.1707 11.0303 14.0303L14.0303 11.0303C14.104 10.9616 14.1631 10.8781 14.2041 10.7861C14.245 10.6943 14.2668 10.5947 14.2686 10.4941C14.2703 10.3936 14.2515 10.2935 14.2139 10.2002C14.1761 10.1069 14.12 10.0223 14.0488 9.95117C13.9777 9.88002 13.8931 9.82385 13.7998 9.78613C13.7065 9.74846 13.6064 9.72972 13.5059 9.73145C13.4053 9.73322 13.3057 9.75504 13.2139 9.7959C13.1219 9.83689 13.0384 9.89605 12.9697 9.96973L11.25 11.6904V7.5C11.25 7.30109 11.1709 7.11038 11.0303 6.96973C10.8896 6.82908 10.6989 6.75 10.5 6.75Z" fill="url(#paint0_linear_494_8660)"/>
<defs>
<linearGradient id="paint0_linear_494_8660" x1="10.5005" y1="-5.94227" x2="10.5005" y2="26.9782" gradientUnits="userSpaceOnUse">
<stop offset="0.490385" stop-color="#C084FC"/>
<stop offset="1" stop-color="#7E22CE"/>
</linearGradient>
</defs>
</svg>
