<svg width="22" height="20" viewBox="0 0 22 20" fill="none" xmlns="http://www.w3.org/2000/svg">
<path d="M18.669 11.4697C18.6989 11.4997 18.7288 11.5277 18.7598 11.5557V17.7539C18.7598 18.7889 17.9198 19.6289 16.8848 19.6289H13.5098C13.3109 19.6289 13.1202 19.5498 12.9795 19.4092C12.8389 19.2685 12.7598 19.0778 12.7598 18.8789V14.3789C12.7598 14.18 12.6807 13.9893 12.5401 13.8486C12.3994 13.708 12.2087 13.6289 12.0098 13.6289H9.00979C8.81089 13.6289 8.62017 13.708 8.47952 13.8486C8.33887 13.9893 8.25979 14.18 8.25979 14.3789V18.8789C8.25979 19.0778 8.18072 19.2685 8.04006 19.4092C7.89941 19.5498 7.7087 19.6289 7.50979 19.6289H4.13479C3.63752 19.6289 3.16025 19.4317 2.80862 19.0801C2.457 18.7284 2.25979 18.2512 2.25979 17.7539V11.5557C2.29086 11.5279 2.32111 11.4992 2.35061 11.4697L10.5098 3.31055L18.669 11.4697Z" fill="url(#paint0_linear_494_8623)"/>
<path d="M10.5098 0C10.8053 0 11.0981 0.0578236 11.3711 0.170898C11.6441 0.283972 11.8917 0.450279 12.1006 0.65918L20.7901 9.34863C20.8616 9.41769 20.9187 9.50047 20.958 9.5918C20.9974 9.68328 21.0177 9.78225 21.0186 9.88184C21.0195 9.98131 21.0005 10.0798 20.9629 10.1719C20.9252 10.2641 20.8702 10.3485 20.7998 10.4189C20.7295 10.4893 20.6458 10.5453 20.5537 10.583C20.4616 10.6208 20.3623 10.6395 20.2627 10.6387C20.1633 10.6378 20.065 10.6173 19.9737 10.5781C19.8821 10.5389 19.7987 10.4818 19.7295 10.4102L11.0401 1.71973C10.8994 1.57928 10.7085 1.50098 10.5098 1.50098C10.311 1.50098 10.1201 1.57928 9.97952 1.71973L1.29006 10.4092C1.22101 10.4807 1.13823 10.5378 1.0469 10.5771C0.955416 10.6165 0.856445 10.6368 0.756862 10.6377C0.657388 10.6386 0.558921 10.6196 0.466823 10.582C0.374633 10.5444 0.290205 10.4893 0.219752 10.4189C0.149359 10.3486 0.0934399 10.2649 0.0556897 10.1729C0.0179356 10.0807 -0.000792404 9.98142 2.56851e-05 9.88184C0.000858862 9.78244 0.0214345 9.68415 0.0605726 9.59277C0.099835 9.50125 0.156943 9.41785 0.228541 9.34863L8.91897 0.65918C9.12786 0.450288 9.37554 0.283972 9.64846 0.170898C9.92144 0.0578263 10.2143 2.72378e-06 10.5098 0Z" fill="url(#paint1_linear_494_8623)"/>
<defs>
<linearGradient id="paint0_linear_494_8623" x1="10.5098" y1="-6.48001" x2="10.5098" y2="29.4196" gradientUnits="userSpaceOnUse">
<stop offset="0.490385" stop-color="#C084FC"/>
<stop offset="1" stop-color="#7E22CE"/>
</linearGradient>
<linearGradient id="paint1_linear_494_8623" x1="10.5098" y1="-6.48001" x2="10.5098" y2="29.4196" gradientUnits="userSpaceOnUse">
<stop offset="0.490385" stop-color="#C084FC"/>
<stop offset="1" stop-color="#7E22CE"/>
</linearGradient>
</defs>
</svg>
