<svg width="17" height="21" viewBox="0 0 17 21" fill="none" xmlns="http://www.w3.org/2000/svg">
<path d="M8.24913 10.4834C10.4149 10.4834 12.4939 11.3351 14.0372 12.8545C15.5805 14.374 16.4644 16.4399 16.4982 18.6055C16.5007 18.7511 16.4605 18.8943 16.3829 19.0176C16.3054 19.1408 16.1939 19.239 16.0616 19.2998C13.6108 20.4235 10.9453 21.0037 8.24913 21C5.46326 21 2.81652 20.3917 0.43761 19.2998C0.30511 19.239 0.192957 19.141 0.115345 19.0176C0.0378153 18.8943 -0.0023963 18.7511 0.000110462 18.6055C0.0338304 16.44 0.917755 14.374 2.46105 12.8545C4.00434 11.335 6.08339 10.4834 8.24913 10.4834Z" fill="url(#paint0_linear_494_8661)"/>
<path d="M8.24913 0C9.44258 0 10.5869 0.474485 11.4308 1.31836C12.2747 2.16227 12.7491 3.30653 12.7491 4.5C12.7491 5.69347 12.2747 6.83773 11.4308 7.68164C10.5869 8.52552 9.44258 9 8.24913 9C7.0557 8.99997 5.91138 8.52552 5.06749 7.68164C4.22362 6.83773 3.74913 5.69344 3.74913 4.5C3.74913 3.30656 4.22362 2.16227 5.06749 1.31836C5.91138 0.474475 7.0557 3.30216e-05 8.24913 0Z" fill="url(#paint1_linear_494_8661)"/>
<defs>
<linearGradient id="paint0_linear_494_8661" x1="8.2496" y1="-6.93265" x2="8.2496" y2="31.4746" gradientUnits="userSpaceOnUse">
<stop offset="0.490385" stop-color="#C084FC"/>
<stop offset="1" stop-color="#7E22CE"/>
</linearGradient>
<linearGradient id="paint1_linear_494_8661" x1="8.2496" y1="-6.93265" x2="8.2496" y2="31.4746" gradientUnits="userSpaceOnUse">
<stop offset="0.490385" stop-color="#C084FC"/>
<stop offset="1" stop-color="#7E22CE"/>
</linearGradient>
</defs>
</svg>
